<svg preserveAspectRatio="none" overflow="visible" style="display: block;" width="174.477" height="174.478" viewBox="0 0 174.477 174.478" fill="none" xmlns="http://www.w3.org/2000/svg">
<g id="Frame 2147227435">
<g id="Vector 5533" filter="url(#filter0_dd_0_4)">
<path d="M79.8812 119.202C75.3686 115.072 70.7586 110.664 66.0731 105.978C62.251 102.156 59.3749 99.6579 55.9655 95.9668C53.7374 93.5547 50.8586 89.9093 48.8049 87.5606C15.8473 49.8687 5.23244 20.7115 13.7586 12.1904C23.629 2.32568 67.0698 30.8279 78.0462 41.8051M58.6684 54.1512C61.4016 51.4176 64.4451 48.95 67.7222 46.8507C70.9601 44.7764 74.4261 43.0616 78.0462 41.8051M78.0462 41.8051C84.7144 39.4905 91.9054 38.7306 99.1567 40.1421M79.8812 119.202C57.2503 137.938 39.8345 146.379 34.0004 140.545C26.1021 132.647 47.1469 104.785 55.9655 95.9668M110.182 44.0487C117.35 36.8804 136.433 29.2298 141.122 33.9186C144.272 37.0689 142.743 48.2429 130.919 65.7176C125.145 74.2507 116.916 84.2862 105.579 95.6236C99.0971 102.105 92.8063 108.014 86.8107 113.284C84.4531 115.357 82.1412 117.331 79.8812 119.202M87.106 125.649C123.914 157.652 153.088 170.02 161.842 161.266C172.208 150.9 147.887 110.421 130.897 93.4306M87.106 125.649C89.5584 123.598 91.9722 121.531 94.3299 119.464M87.106 125.649C57.9933 149.992 23.4596 171.972 13.2624 161.771C-0.0612871 148.444 32.6791 108.019 48.8049 87.5606M130.919 65.7176C129.151 61.4255 126.383 57.1928 122.349 53.1588C118.41 49.2196 114.325 46.2222 110.182 44.0487M118.893 113.878C121.28 111.183 123.929 107.614 126.307 103.45C128.052 100.394 129.652 97.0176 130.897 93.4306C132.547 88.6741 133.573 83.547 133.485 78.3056M94.3299 119.464C100.554 114.01 106.385 108.562 111.498 103.45C118.979 95.9687 126.53 87.2898 133.485 78.3056C154.459 51.2133 170.009 21.3452 161.85 13.1857C150.985 2.32037 112.785 26.514 99.1567 40.1421M67.7222 46.8507C59.1088 39.9111 40.3048 27.6093 33.9955 33.9185C26.1089 41.8051 50.2858 77.8525 72.9935 100.56C77.2119 104.778 81.9073 109.099 86.8107 113.284M94.3299 119.464C113.904 134.945 134.574 146.594 140.623 140.545C147.337 133.831 133.876 113.017 126.307 103.45M99.1567 40.1421C102.836 40.8583 106.531 42.1337 110.182 44.0487" stroke="#F4EEE2" stroke-width="3" stroke-linecap="round"/>
</g>
</g>
<defs>
<filter id="filter0_dd_0_4" x="1.19209e-07" y="-1.19209e-07" width="174.477" height="174.478" filterUnits="userSpaceOnUse" color-interpolation-filters="sRGB">
<feFlood flood-opacity="0" result="BackgroundImageFix"/>
<feColorMatrix in="SourceAlpha" type="matrix" values="0 0 0 0 0 0 0 0 0 0 0 0 0 0 0 0 0 0 127 0" result="hardAlpha"/>
<feOffset/>
<feGaussianBlur stdDeviation="4.32432"/>
<feColorMatrix type="matrix" values="0 0 0 0 0.956863 0 0 0 0 0.933333 0 0 0 0 0.886275 0 0 0 0.6 0"/>
<feBlend mode="normal" in2="BackgroundImageFix" result="effect1_dropShadow_0_4"/>
<feColorMatrix in="SourceAlpha" type="matrix" values="0 0 0 0 0 0 0 0 0 0 0 0 0 0 0 0 0 0 127 0" result="hardAlpha"/>
<feOffset/>
<feGaussianBlur stdDeviation="1.62162"/>
<feColorMatrix type="matrix" values="0 0 0 0 0.956863 0 0 0 0 0.933333 0 0 0 0 0.886275 0 0 0 0.2 0"/>
<feBlend mode="normal" in2="effect1_dropShadow_0_4" result="effect2_dropShadow_0_4"/>
<feBlend mode="normal" in="SourceGraphic" in2="effect2_dropShadow_0_4" result="shape"/>
</filter>
</defs>
</svg>
